# xmcd CD database file
#
# Track frame offsets:
#	182
#	12102
#	44860
#	72125
#	109565
#	127537
#	143915
#	158125
#	169315
#	183497
#	213992
#	237452
#
# Disc length: 3495 seconds
#
# Revision: 0
# Processed by: cddbd v1.5.1PL0 Copyright (c) Steve Scherf et al.
# Submitted via: CDex 1.51
#
DISCID=a30da50c
DTITLE=Stan Getz Quartet - Major Generale
DYEAR=1969
DGENRE=Jazz
TTITLE0=For jane
TTITLE1=Dance Chant
TTITLE2=Major Generale
TTITLE3=Tonight I Sall Sleep
TTITLE4=Desafinado
TTITLE5=Summer Night
TTITLE6=To Say Goodbye
TTITLE7=Loverborn
TTITLE8=Corcovado
TTITLE9=All The Things You Are
TTITLE10=The Song Is You
TTITLE11=O Grande Amor
EXTD=YEAR: 1969
EXTT0=
EXTT1=
EXTT2=
EXTT3=
EXTT4=
EXTT5=
EXTT6=
EXTT7=
EXTT8=
EXTT9=
EXTT10=
EXTT11=
PLAYORDER=
